<svg width="35" height="35" viewBox="0 0 35 35" fill="none" xmlns="http://www.w3.org/2000/svg">
<path d="M17.4 0C12.7852 0 8.35947 1.83321 5.09634 5.09634C1.83321 8.35947 0 12.7852 0 17.4C0 22.0148 1.83321 26.4405 5.09634 29.7036C8.35947 32.9668 12.7852 34.8 17.4 34.8C22.0148 34.8 26.4405 32.9668 29.7036 29.7036C32.9668 26.4405 34.8 22.0148 34.8 17.4C34.8 12.7852 32.9668 8.35947 29.7036 5.09634C26.4405 1.83321 22.0148 0 17.4 0V0ZM21.9873 31.5857H21.8512C21.7499 31.5912 21.6486 31.5759 21.5533 31.5408C21.4581 31.5058 21.3711 31.4516 21.2976 31.3817C21.2296 31.31 21.1766 31.2256 21.1416 31.1333C21.1065 31.0409 21.0902 30.9426 21.0935 30.8439V28.8033C21.103 28.1263 21.1094 27.443 21.1094 26.7517C21.1068 26.2466 21.0328 25.7444 20.8895 25.26C20.7545 24.7709 20.4822 24.3307 20.1049 23.9914C21.1155 23.8938 22.1089 23.6641 23.0597 23.3081C23.8619 23.0033 24.5875 22.5266 25.1857 21.9113C25.7757 21.2913 26.2139 20.5446 26.467 19.7268C26.777 18.7271 26.9241 17.6863 26.9036 16.6391C26.9082 15.9086 26.7796 15.1833 26.5239 14.4989C26.2657 13.8093 25.875 13.1768 25.3739 12.6371C25.4815 12.3651 25.5606 12.0819 25.608 11.7925C25.7183 11.1296 25.6989 10.4517 25.5511 9.7962C25.4719 9.4196 25.3645 9.04948 25.23 8.68892C25.1786 8.66907 25.1238 8.6594 25.0686 8.66045H24.9105C24.5783 8.66361 24.2477 8.71898 23.9329 8.8218C23.5849 8.92303 23.2432 9.04958 22.9126 9.19985C22.5839 9.347 22.2638 9.51283 21.954 9.69654C21.6719 9.86295 21.3949 10.0381 21.1236 10.2217C18.6845 9.54198 16.106 9.54198 13.6669 10.2217C13.3945 10.0397 13.1176 9.86462 12.8364 9.69654C12.5223 9.51078 12.1969 9.34489 11.862 9.19985C11.5325 9.04567 11.1907 8.91921 10.8402 8.8218C10.5303 8.71928 10.2064 8.66487 9.88003 8.66045H9.72185C9.66768 8.66019 9.61397 8.6704 9.56367 8.69051C9.42632 9.05097 9.31375 9.42039 9.22674 9.7962C9.08953 10.4533 9.07505 11.1301 9.18403 11.7925C9.23149 12.0819 9.309 12.3651 9.41656 12.6371C8.91591 13.1768 8.52577 13.8093 8.26816 14.4989C8.01251 15.1833 7.88385 15.9086 7.88852 16.6391C7.8676 17.6788 8.00957 18.7153 8.30929 19.711C8.57345 20.5288 9.01003 21.2802 9.59214 21.9113C10.1932 22.5219 10.9177 22.998 11.7181 23.3081C12.664 23.6719 13.6558 23.9044 14.665 23.9993C14.3835 24.254 14.1589 24.5688 14.0102 24.9168C13.8678 25.2632 13.7681 25.6254 13.7191 25.9956C13.1872 26.2506 12.6054 26.3846 12.0155 26.3879C11.4677 26.4093 10.9271 26.2564 10.4716 25.9513C10.034 25.6275 9.66335 25.2219 9.38018 24.757C9.25356 24.5621 9.11237 24.377 8.95783 24.2034C8.79457 24.0213 8.6145 23.855 8.42002 23.7067C8.22732 23.5629 8.01608 23.4459 7.79203 23.3587C7.57215 23.262 7.33464 23.212 7.09445 23.2116C7.03619 23.2135 6.97809 23.2187 6.92045 23.2274C6.84136 23.2274 6.76227 23.2369 6.68634 23.2559C6.61844 23.2735 6.55417 23.3029 6.49652 23.3429C6.47103 23.3574 6.44975 23.3783 6.43478 23.4036C6.4198 23.4288 6.41164 23.4575 6.41111 23.4868C6.41744 23.5567 6.43899 23.6243 6.47424 23.685C6.50949 23.7457 6.55759 23.7979 6.61516 23.838C6.74803 23.9456 6.86034 24.0278 6.95051 24.0863L6.99163 24.1164C7.1862 24.2651 7.37127 24.4264 7.54527 24.5988C7.70978 24.7412 7.85689 24.9026 7.98185 25.0781C8.11314 25.249 8.22545 25.4356 8.3172 25.6302C8.42318 25.8248 8.53549 26.0478 8.65254 26.3009C8.92461 26.9874 9.40865 27.5695 10.0351 27.9618C10.6915 28.3145 11.4302 28.4901 12.1752 28.4711C12.4283 28.4711 12.6814 28.4553 12.9345 28.4268C13.1813 28.3873 13.4296 28.3446 13.678 28.2956V30.8233C13.6822 30.925 13.6649 31.0264 13.6274 31.1211C13.5899 31.2157 13.5328 31.3013 13.4601 31.3725C13.3873 31.4436 13.3003 31.4987 13.2049 31.5341C13.1094 31.5694 13.0076 31.5843 12.9061 31.5778H12.8159C9.43491 30.4855 6.55501 28.2219 4.69477 25.1948C2.83453 22.1676 2.11618 18.5758 2.66908 15.066C3.22198 11.5562 5.00981 8.35917 7.71061 6.05053C10.4114 3.74188 13.8477 2.47334 17.4008 2.47334C20.9538 2.47334 24.3902 3.74188 27.091 6.05053C29.7918 8.35917 31.5796 11.5562 32.1325 15.066C32.6854 18.5758 31.967 22.1676 30.1068 25.1948C28.2466 28.2219 25.3667 30.4855 21.9857 31.5778V31.5857H21.9873Z" fill="#931621"/>
</svg>
