<svg width="34" height="35" viewBox="0 0 34 35" fill="none" xmlns="http://www.w3.org/2000/svg">
<path d="M24.5343 34.6906C26.2592 34.6119 27.4515 34.3584 28.555 33.9296C29.659 33.5005 30.4951 32.9567 31.3259 32.1258C32.1567 31.2949 32.7005 30.459 33.1297 29.3549C33.5585 28.2513 33.8119 27.0591 33.8906 25.3342C33.9881 23.1951 34 22.4411 34 17.8C34 13.1589 33.9882 12.4049 33.8906 10.2657C33.8119 8.54093 33.5585 7.34873 33.1296 6.24477C32.7005 5.14092 32.1566 4.30491 31.3259 3.47427C30.4951 2.64338 29.659 2.09947 28.5549 1.67034C27.4511 1.24148 26.259 0.988076 24.5343 0.909434C22.3956 0.811842 21.6418 0.799989 17 0.799989C12.3582 0.799989 11.6044 0.811842 9.46577 0.909431C7.74104 0.988077 6.54883 1.24149 5.44485 1.67043C4.34091 2.0995 3.50482 2.64341 2.67414 3.47419C1.84333 4.305 1.29939 5.14107 0.870284 6.24511C0.441494 7.34872 0.188091 8.54092 0.109372 10.2657C0.0118333 12.4035 0 13.1569 0 17.8C0 22.4431 0.0118334 23.1965 0.109373 25.3343C0.188091 27.0591 0.441494 28.2513 0.870347 29.355C1.29935 30.4589 1.84327 31.2949 2.67406 32.1257C3.50482 32.9566 4.34091 33.5005 5.44489 33.9296C6.54835 34.3584 7.7408 34.6119 9.46565 34.6906C11.6036 34.7882 12.3569 34.8 17 34.8C21.6431 34.8 22.3965 34.7882 24.5343 34.6906V34.6906ZM17 31.0222C12.4094 31.0222 11.7073 31.0112 9.63787 30.9168C8.32454 30.8568 7.53599 30.6892 6.81342 30.4084C6.19647 30.1686 5.80444 29.9136 5.34543 29.4545C4.88631 28.9954 4.63127 28.6034 4.39161 27.9867C4.11074 27.2638 3.94316 26.4754 3.88322 25.1621C3.78881 23.0927 3.77778 22.3905 3.77778 17.8C3.77778 13.2094 3.78881 12.5073 3.88322 10.4379C3.94316 9.12458 4.11074 8.33617 4.39153 7.61348C4.63128 6.99663 4.88636 6.60455 5.3455 6.14541C5.80444 5.68642 6.19647 5.43138 6.81321 5.19167C7.53626 4.91075 8.32463 4.74317 9.63792 4.68328C11.7082 4.58881 12.4107 4.57777 17 4.57777C21.5893 4.57777 22.2918 4.58881 24.3621 4.68329C25.6753 4.74317 26.4636 4.91073 27.1866 5.19161C27.8035 5.4314 28.1956 5.68641 28.6546 6.14549C29.1136 6.60447 29.3686 6.99657 29.6084 7.61327C29.8893 8.33617 30.0568 9.12459 30.1168 10.4379C30.2112 12.5086 30.2222 13.2114 30.2222 17.8C30.2222 22.3886 30.2112 23.0913 30.1168 25.1621C30.0568 26.4754 29.8893 27.2638 29.6085 27.9864C29.3687 28.6034 29.1136 28.9955 28.6546 29.4546C28.1956 29.9136 27.8035 30.1686 27.1865 30.4084C26.4639 30.6892 25.6754 30.8568 24.3621 30.9168C22.2927 31.0112 21.5906 31.0222 17 31.0222V31.0222ZM17 8.98517C12.1317 8.98517 8.18518 12.9317 8.18518 17.8C8.18518 22.6683 12.1317 26.6148 17 26.6148C21.8683 26.6148 25.8148 22.6683 25.8148 17.8C25.8148 12.9317 21.8683 8.98517 17 8.98517ZM17 12.763C19.7819 12.763 22.037 15.0181 22.037 17.8C22.037 20.5819 19.7819 22.837 17 22.837C14.2181 22.837 11.963 20.5819 11.963 17.8C11.963 15.0181 14.2181 12.763 17 12.763ZM25.8148 24.7259C24.7716 24.7259 23.9259 25.5716 23.9259 26.6148C23.9259 27.658 24.7716 28.5037 25.8148 28.5037C26.858 28.5037 27.7037 27.658 27.7037 26.6148C27.7037 25.5716 26.858 24.7259 25.8148 24.7259Z" fill="#931621"/>
</svg>
